<svg width="65" height="14" viewBox="0 0 65 14" fill="none" xmlns="http://www.w3.org/2000/svg">
<path fill-rule="evenodd" clip-rule="evenodd" d="M30.487 10.6999C30.0394 10.8427 29.5346 10.9142 28.9727 10.9142C28.3156 10.9142 27.737 10.8213 27.237 10.6356C26.737 10.4499 26.3203 10.1927 25.987 9.86416C25.6537 9.53559 25.4013 9.14987 25.2299 8.70702C25.0584 8.26416 24.9727 7.78083 24.9727 7.25702V6.82845H26.8584V7.1713C26.8584 7.7713 27.0323 8.24987 27.3799 8.60702C27.7275 8.96416 28.268 9.14273 29.0013 9.14273C29.5727 9.14273 29.9965 9.01892 30.2727 8.7713C30.5489 8.52368 30.687 8.22845 30.687 7.88559C30.687 7.72368 30.6584 7.56892 30.6013 7.4213C30.5442 7.27368 30.4442 7.14035 30.3013 7.0213C30.1584 6.90226 29.9632 6.79511 29.7156 6.69987C29.468 6.60464 29.1537 6.52368 28.7727 6.45702C28.268 6.3713 27.8061 6.2594 27.387 6.1213C26.968 5.98321 26.6037 5.79987 26.2942 5.5713C25.9846 5.34273 25.7442 5.05702 25.5727 4.71416C25.4013 4.3713 25.3156 3.95226 25.3156 3.45702V3.3713C25.3156 2.96178 25.3989 2.58321 25.5656 2.23559C25.7323 1.88797 25.9656 1.58559 26.2656 1.32845C26.5656 1.0713 26.9275 0.871303 27.3513 0.728446C27.7751 0.585589 28.2489 0.51416 28.7727 0.51416C29.3632 0.51416 29.887 0.597493 30.3442 0.76416C30.8013 0.930827 31.1846 1.15702 31.4942 1.44273C31.8037 1.72845 32.037 2.05702 32.1942 2.42845C32.3513 2.79987 32.4299 3.19035 32.4299 3.59987V4.11416H30.5442V3.7713C30.5442 3.3713 30.3894 3.02368 30.0799 2.72845C29.7703 2.43321 29.3346 2.28559 28.7727 2.28559C28.2965 2.28559 27.9203 2.38321 27.6442 2.57845C27.368 2.77368 27.2299 3.03797 27.2299 3.3713C27.2299 3.54273 27.2632 3.69749 27.3299 3.83559C27.3965 3.97368 27.5132 4.09749 27.6799 4.20702C27.8465 4.31654 28.0656 4.41416 28.337 4.49987C28.6084 4.58559 28.9537 4.66654 29.3727 4.74273C30.4203 4.93321 31.2203 5.25226 31.7727 5.69987C32.3251 6.14749 32.6013 6.8094 32.6013 7.68559V7.85702C32.6013 8.32368 32.518 8.74511 32.3513 9.1213C32.1846 9.49749 31.9442 9.81892 31.6299 10.0856C31.3156 10.3523 30.9346 10.557 30.487 10.6999ZM2.32885 10.7142L2.81456 8.5713H6.21456L6.70028 10.7142H8.67171L6.28599 0.71416H2.74314L0.357422 10.7142H2.32885ZM5.80028 6.7713H3.21456L4.38599 1.65702H4.64314L5.80028 6.7713ZM10.7911 9.68559V13.5713H8.9911V3.62845H10.7911V4.65702H11.0482C11.2387 4.26654 11.5149 3.96416 11.8768 3.74987C12.2387 3.53559 12.7006 3.42845 13.2625 3.42845C13.6816 3.42845 14.0792 3.5094 14.4554 3.6713C14.8316 3.83321 15.1601 4.06892 15.4411 4.37845C15.722 4.68797 15.9459 5.06654 16.1125 5.51416C16.2792 5.96178 16.3625 6.4713 16.3625 7.04273V7.29987C16.3625 7.88083 16.2816 8.39511 16.1197 8.84273C15.9578 9.29035 15.7387 9.66892 15.4625 9.97845C15.1863 10.288 14.8601 10.5213 14.484 10.6784C14.1078 10.8356 13.7006 10.9142 13.2625 10.9142C12.9387 10.9142 12.6578 10.8808 12.4197 10.8142C12.1816 10.7475 11.9744 10.657 11.7982 10.5427C11.622 10.4284 11.4744 10.2975 11.3554 10.1499C11.2363 10.0023 11.134 9.84749 11.0482 9.68559H10.7911ZM12.6768 9.19987C12.1149 9.19987 11.6601 9.0213 11.3125 8.66416C10.9649 8.30702 10.7911 7.83797 10.7911 7.25702V7.08559C10.7911 6.50464 10.9649 6.03559 11.3125 5.67845C11.6601 5.3213 12.1149 5.14273 12.6768 5.14273C13.2387 5.14273 13.6935 5.31654 14.0411 5.66416C14.3887 6.01178 14.5625 6.48559 14.5625 7.08559V7.25702C14.5625 7.85702 14.3887 8.33083 14.0411 8.67845C13.6935 9.02606 13.2387 9.19987 12.6768 9.19987ZM18.8962 9.68559V13.5713H17.0962V3.62845H18.8962V4.65702H19.1533C19.3438 4.26654 19.62 3.96416 19.9819 3.74987C20.3438 3.53559 20.8057 3.42845 21.3676 3.42845C21.7867 3.42845 22.1843 3.5094 22.5605 3.6713C22.9367 3.83321 23.2652 4.06892 23.5462 4.37845C23.8271 4.68797 24.051 5.06654 24.2176 5.51416C24.3843 5.96178 24.4676 6.4713 24.4676 7.04273V7.29987C24.4676 7.88083 24.3867 8.39511 24.2248 8.84273C24.0629 9.29035 23.8438 9.66892 23.5676 9.97845C23.2914 10.288 22.9652 10.5213 22.5891 10.6784C22.2129 10.8356 21.8057 10.9142 21.3676 10.9142C21.0438 10.9142 20.7629 10.8808 20.5248 10.8142C20.2867 10.7475 20.0795 10.657 19.9033 10.5427C19.7271 10.4284 19.5795 10.2975 19.4605 10.1499C19.3414 10.0023 19.2391 9.84749 19.1533 9.68559H18.8962ZM20.7819 9.19987C20.22 9.19987 19.7652 9.0213 19.4176 8.66416C19.07 8.30702 18.8962 7.83797 18.8962 7.25702V7.08559C18.8962 6.50464 19.07 6.03559 19.4176 5.67845C19.7652 5.3213 20.22 5.14273 20.7819 5.14273C21.3438 5.14273 21.7986 5.31654 22.1462 5.66416C22.4938 6.01178 22.6676 6.48559 22.6676 7.08559V7.25702C22.6676 7.85702 22.4938 8.33083 22.1462 8.67845C21.7986 9.02606 21.3438 9.19987 20.7819 9.19987ZM39.6778 10.7142V8.99987H37.7635C37.5064 8.99987 37.3778 8.85702 37.3778 8.5713V5.34273H39.935V3.62845H37.3778V0.71416H35.5778V3.62845H33.4778V5.34273H35.5778V9.59987C35.5778 9.92368 35.6802 10.1904 35.885 10.3999C36.0897 10.6094 36.354 10.7142 36.6778 10.7142H39.6778ZM46.4329 10.6713C45.9901 10.8332 45.5258 10.9142 45.0401 10.9142C44.5544 10.9142 44.0901 10.8332 43.6472 10.6713C43.2044 10.5094 42.8115 10.2737 42.4686 9.96416C42.1258 9.65464 41.8544 9.27368 41.6544 8.8213C41.4544 8.36892 41.3544 7.84749 41.3544 7.25702V7.08559C41.3544 6.50464 41.4544 5.98797 41.6544 5.53559C41.8544 5.08321 42.1258 4.69987 42.4686 4.38559C42.8115 4.0713 43.2044 3.83321 43.6472 3.6713C44.0901 3.5094 44.5544 3.42845 45.0401 3.42845C45.5258 3.42845 45.9901 3.5094 46.4329 3.6713C46.8758 3.83321 47.2687 4.0713 47.6115 4.38559C47.9544 4.69987 48.2258 5.08321 48.4258 5.53559C48.6258 5.98797 48.7258 6.50464 48.7258 7.08559V7.25702C48.7258 7.84749 48.6258 8.36892 48.4258 8.8213C48.2258 9.27368 47.9544 9.65464 47.6115 9.96416C47.2687 10.2737 46.8758 10.5094 46.4329 10.6713ZM45.0401 9.19987C44.7829 9.19987 44.5401 9.15702 44.3115 9.0713C44.0829 8.98559 43.8829 8.86178 43.7115 8.69987C43.5401 8.53797 43.4044 8.34035 43.3044 8.10702C43.2044 7.87368 43.1544 7.6094 43.1544 7.31416V7.02845C43.1544 6.73321 43.2044 6.46892 43.3044 6.23559C43.4044 6.00226 43.5401 5.80464 43.7115 5.64273C43.8829 5.48083 44.0829 5.35702 44.3115 5.2713C44.5401 5.18559 44.7829 5.14273 45.0401 5.14273C45.2972 5.14273 45.5401 5.18559 45.7686 5.2713C45.9972 5.35702 46.1972 5.48083 46.3686 5.64273C46.5401 5.80464 46.6758 6.00226 46.7758 6.23559C46.8758 6.46892 46.9258 6.73321 46.9258 7.02845V7.31416C46.9258 7.6094 46.8758 7.87368 46.7758 8.10702C46.6758 8.34035 46.5401 8.53797 46.3686 8.69987C46.1972 8.86178 45.9972 8.98559 45.7686 9.0713C45.5401 9.15702 45.2972 9.19987 45.0401 9.19987ZM54.2595 8.99987V10.7142H49.3737V8.99987H50.8309V5.34273H49.5452V3.62845H52.5452V4.65702H52.8023C52.9357 4.26654 53.1618 3.96416 53.4809 3.74987C53.7999 3.53559 54.1833 3.42845 54.6309 3.42845C55.3357 3.42845 55.9023 3.64987 56.3309 4.09273C56.7595 4.53559 56.9737 5.2094 56.9737 6.11416V6.42845L55.1166 6.59987V6.39987C55.1166 6.0094 55.0166 5.69749 54.8166 5.46416C54.6166 5.23083 54.3166 5.11416 53.9166 5.11416C53.5166 5.11416 53.2023 5.25226 52.9737 5.52845C52.7452 5.80464 52.6309 6.19987 52.6309 6.71416V8.99987H54.2595ZM61.3217 10.9142C61.7884 10.9142 62.1955 10.8618 62.5431 10.757C62.8908 10.6523 63.186 10.5189 63.4288 10.357C63.6717 10.1951 63.8693 10.0165 64.0217 9.8213C64.1741 9.62607 64.2931 9.43797 64.3788 9.25702L62.836 8.39987C62.7312 8.61892 62.5598 8.80702 62.3217 8.96416C62.0836 9.1213 61.7408 9.19987 61.2931 9.19987C61.0646 9.19987 60.8479 9.16416 60.6431 9.09273C60.4384 9.0213 60.2574 8.9213 60.1003 8.79273C59.9431 8.66416 59.8193 8.51178 59.7288 8.33559C59.6384 8.1594 59.5884 7.96654 59.5788 7.75702H64.7788V6.79987C64.7788 6.42845 64.7122 6.04511 64.5788 5.64987C64.4455 5.25464 64.236 4.89273 63.9503 4.56416C63.6646 4.23559 63.3027 3.96416 62.8646 3.74987C62.4265 3.53559 61.9027 3.42845 61.2931 3.42845C60.7979 3.42845 60.3336 3.51654 59.9003 3.69273C59.4669 3.86892 59.0884 4.11416 58.7646 4.42845C58.4408 4.74273 58.186 5.12368 58.0003 5.5713C57.8146 6.01892 57.7217 6.51416 57.7217 7.05702V7.14273C57.7217 7.73321 57.8098 8.26178 57.986 8.72845C58.1622 9.19511 58.4098 9.59035 58.7288 9.91416C59.0479 10.238 59.4265 10.4856 59.8646 10.657C60.3027 10.8284 60.7884 10.9142 61.3217 10.9142ZM59.6074 6.21416H62.9503C62.8931 5.88083 62.7146 5.60464 62.4146 5.38559C62.1146 5.16654 61.736 5.05702 61.2789 5.05702C60.8217 5.05702 60.4503 5.17368 60.1646 5.40702C59.8788 5.64035 59.6931 5.9094 59.6074 6.21416Z" fill="#495567"/>
</svg>
