<svg width="81" height="14" viewBox="0 0 81 14" fill="none" xmlns="http://www.w3.org/2000/svg">
<path fill-rule="evenodd" clip-rule="evenodd" d="M4.94305 10.5356C4.61924 10.788 4.13353 10.9142 3.48591 10.9142C3.02877 10.9142 2.6002 10.8284 2.2002 10.657C1.8002 10.4856 1.45258 10.2308 1.15734 9.89273C0.8621 9.55464 0.628767 9.13559 0.457338 8.63559C0.28591 8.13559 0.200195 7.55226 0.200195 6.88559V4.54273C0.200195 3.89511 0.293052 3.3213 0.478767 2.8213C0.664481 2.3213 0.921624 1.89987 1.2502 1.55702C1.57877 1.21416 1.97162 0.954636 2.42877 0.778446C2.88591 0.602255 3.39067 0.51416 3.94305 0.51416C4.51448 0.51416 5.024 0.607017 5.47162 0.792732C5.91924 0.978446 6.3002 1.23559 6.61448 1.56416C6.92877 1.89273 7.16686 2.27845 7.32877 2.7213C7.49067 3.16416 7.57162 3.63797 7.57162 4.14273V4.31416H5.68591V4.14273C5.68591 3.54273 5.53115 3.08797 5.22162 2.77845C4.9121 2.46892 4.47639 2.31416 3.91448 2.31416C3.38115 2.31416 2.94305 2.49273 2.6002 2.84987C2.25734 3.20702 2.08591 3.81892 2.08591 4.68559V6.79987C2.08591 8.34273 2.71448 9.11416 3.97162 9.11416C4.53353 9.11416 4.95972 8.96416 5.2502 8.66416C5.54067 8.36416 5.68591 7.96178 5.68591 7.45702H3.28591V5.65702H7.57162V10.7142H5.85734V9.59987H5.6002C5.48591 9.9713 5.26686 10.2832 4.94305 10.5356ZM13.441 10.6713C12.9982 10.8332 12.5339 10.9142 12.0482 10.9142C11.5624 10.9142 11.0982 10.8332 10.6553 10.6713C10.2124 10.5094 9.81958 10.2737 9.47673 9.96416C9.13387 9.65464 8.86244 9.27368 8.66244 8.8213C8.46244 8.36892 8.36244 7.84749 8.36244 7.25702V7.08559C8.36244 6.50464 8.46244 5.98797 8.66244 5.53559C8.86244 5.08321 9.13387 4.69987 9.47673 4.38559C9.81958 4.0713 10.2124 3.83321 10.6553 3.6713C11.0982 3.5094 11.5624 3.42845 12.0482 3.42845C12.5339 3.42845 12.9982 3.5094 13.441 3.6713C13.8839 3.83321 14.2767 4.0713 14.6196 4.38559C14.9624 4.69987 15.2339 5.08321 15.4339 5.53559C15.6339 5.98797 15.7339 6.50464 15.7339 7.08559V7.25702C15.7339 7.84749 15.6339 8.36892 15.4339 8.8213C15.2339 9.27368 14.9624 9.65464 14.6196 9.96416C14.2767 10.2737 13.8839 10.5094 13.441 10.6713ZM12.0482 9.19987C11.791 9.19987 11.5482 9.15702 11.3196 9.0713C11.091 8.98559 10.891 8.86178 10.7196 8.69987C10.5482 8.53797 10.4124 8.34035 10.3124 8.10702C10.2124 7.87368 10.1624 7.6094 10.1624 7.31416V7.02845C10.1624 6.73321 10.2124 6.46892 10.3124 6.23559C10.4124 6.00226 10.5482 5.80464 10.7196 5.64273C10.891 5.48083 11.091 5.35702 11.3196 5.2713C11.5482 5.18559 11.791 5.14273 12.0482 5.14273C12.3053 5.14273 12.5482 5.18559 12.7767 5.2713C13.0053 5.35702 13.2053 5.48083 13.3767 5.64273C13.5482 5.80464 13.6839 6.00226 13.7839 6.23559C13.8839 6.46892 13.9339 6.73321 13.9339 7.02845V7.31416C13.9339 7.6094 13.8839 7.87368 13.7839 8.10702C13.6839 8.34035 13.5482 8.53797 13.3767 8.69987C13.2053 8.86178 13.0053 8.98559 12.7767 9.0713C12.5482 9.15702 12.3053 9.19987 12.0482 9.19987ZM21.5461 10.6713C21.1033 10.8332 20.639 10.9142 20.1533 10.9142C19.6675 10.9142 19.2033 10.8332 18.7604 10.6713C18.3175 10.5094 17.9247 10.2737 17.5818 9.96416C17.239 9.65464 16.9675 9.27368 16.7675 8.8213C16.5675 8.36892 16.4675 7.84749 16.4675 7.25702V7.08559C16.4675 6.50464 16.5675 5.98797 16.7675 5.53559C16.9675 5.08321 17.239 4.69987 17.5818 4.38559C17.9247 4.0713 18.3175 3.83321 18.7604 3.6713C19.2033 3.5094 19.6675 3.42845 20.1533 3.42845C20.639 3.42845 21.1033 3.5094 21.5461 3.6713C21.989 3.83321 22.3818 4.0713 22.7247 4.38559C23.0675 4.69987 23.339 5.08321 23.539 5.53559C23.739 5.98797 23.839 6.50464 23.839 7.08559V7.25702C23.839 7.84749 23.739 8.36892 23.539 8.8213C23.339 9.27368 23.0675 9.65464 22.7247 9.96416C22.3818 10.2737 21.989 10.5094 21.5461 10.6713ZM20.1533 9.19987C19.8961 9.19987 19.6533 9.15702 19.4247 9.0713C19.1961 8.98559 18.9961 8.86178 18.8247 8.69987C18.6533 8.53797 18.5175 8.34035 18.4175 8.10702C18.3175 7.87368 18.2675 7.6094 18.2675 7.31416V7.02845C18.2675 6.73321 18.3175 6.46892 18.4175 6.23559C18.5175 6.00226 18.6533 5.80464 18.8247 5.64273C18.9961 5.48083 19.1961 5.35702 19.4247 5.2713C19.6533 5.18559 19.8961 5.14273 20.1533 5.14273C20.4104 5.14273 20.6533 5.18559 20.8818 5.2713C21.1104 5.35702 21.3104 5.48083 21.4818 5.64273C21.6533 5.80464 21.789 6.00226 21.889 6.23559C21.989 6.46892 22.039 6.73321 22.039 7.02845V7.31416C22.039 7.6094 21.989 7.87368 21.889 8.10702C21.789 8.34035 21.6533 8.53797 21.4818 8.69987C21.3104 8.86178 21.1104 8.98559 20.8818 9.0713C20.6533 9.15702 20.4104 9.19987 20.1533 9.19987ZM31.5512 13.257C31.3465 13.4665 31.0822 13.5713 30.7584 13.5713H25.9869V11.857H29.6726C29.9298 11.857 30.0584 11.7142 30.0584 11.4284V9.68559H29.8012C29.725 9.84749 29.6322 10.0023 29.5226 10.1499C29.4131 10.2975 29.2703 10.4284 29.0941 10.5427C28.9179 10.657 28.7084 10.7475 28.4655 10.8142C28.2226 10.8808 27.9298 10.9142 27.5869 10.9142C27.1488 10.9142 26.7417 10.8356 26.3655 10.6784C25.9893 10.5213 25.6607 10.288 25.3798 9.97845C25.0988 9.66892 24.8798 9.29035 24.7226 8.84273C24.5655 8.39511 24.4869 7.88083 24.4869 7.29987V7.04273C24.4869 6.4713 24.5703 5.96178 24.7369 5.51416C24.9036 5.06654 25.1322 4.68797 25.4226 4.37845C25.7131 4.06892 26.0512 3.83321 26.4369 3.6713C26.8226 3.5094 27.2298 3.42845 27.6584 3.42845C28.2298 3.42845 28.6822 3.53559 29.0155 3.74987C29.3488 3.96416 29.6107 4.26654 29.8012 4.65702H30.0584V3.62845H31.8584V12.457C31.8584 12.7808 31.756 13.0475 31.5512 13.257ZM28.1726 9.19987C27.6107 9.19987 27.156 9.02606 26.8084 8.67845C26.4607 8.33083 26.2869 7.85702 26.2869 7.25702V7.08559C26.2869 6.48559 26.4607 6.01178 26.8084 5.66416C27.156 5.31654 27.6107 5.14273 28.1726 5.14273C28.7345 5.14273 29.1893 5.3213 29.5369 5.67845C29.8845 6.03559 30.0584 6.50464 30.0584 7.08559V7.25702C30.0584 7.83797 29.8845 8.30702 29.5369 8.66416C29.1893 9.0213 28.7345 9.19987 28.1726 9.19987ZM39.6635 8.99987V10.7142H33.0635V8.99987H35.5492V2.42845H33.1492V0.71416H37.3492V8.99987H39.6635ZM44.54 10.9142C45.0067 10.9142 45.4138 10.8618 45.7614 10.757C46.109 10.6523 46.4043 10.5189 46.6471 10.357C46.89 10.1951 47.0876 10.0165 47.24 9.8213C47.3924 9.62607 47.5114 9.43797 47.5971 9.25702L46.0543 8.39987C45.9495 8.61892 45.7781 8.80702 45.54 8.96416C45.3019 9.1213 44.959 9.19987 44.5114 9.19987C44.2828 9.19987 44.0662 9.16416 43.8614 9.09273C43.6567 9.0213 43.4757 8.9213 43.3186 8.79273C43.1614 8.66416 43.0376 8.51178 42.9471 8.33559C42.8567 8.1594 42.8067 7.96654 42.7971 7.75702H47.9971V6.79987C47.9971 6.42845 47.9305 6.04511 47.7971 5.64987C47.6638 5.25464 47.4543 4.89273 47.1686 4.56416C46.8828 4.23559 46.5209 3.96416 46.0828 3.74987C45.6448 3.53559 45.1209 3.42845 44.5114 3.42845C44.0162 3.42845 43.5519 3.51654 43.1186 3.69273C42.6852 3.86892 42.3067 4.11416 41.9828 4.42845C41.659 4.74273 41.4043 5.12368 41.2186 5.5713C41.0328 6.01892 40.94 6.51416 40.94 7.05702V7.14273C40.94 7.73321 41.0281 8.26178 41.2043 8.72845C41.3805 9.19511 41.6281 9.59035 41.9471 9.91416C42.2662 10.238 42.6448 10.4856 43.0828 10.657C43.5209 10.8284 44.0067 10.9142 44.54 10.9142ZM42.8257 6.21416H46.1686C46.1114 5.88083 45.9328 5.60464 45.6329 5.38559C45.3328 5.16654 44.9543 5.05702 44.4971 5.05702C44.04 5.05702 43.6686 5.17368 43.3829 5.40702C43.0971 5.64035 42.9114 5.9094 42.8257 6.21416ZM51.1165 10.7142V6.94273H53.1451C53.6594 6.94273 54.107 6.85702 54.488 6.68559C54.8689 6.51416 55.1856 6.28797 55.438 6.00702C55.6903 5.72607 55.8808 5.40702 56.0094 5.04987C56.138 4.69273 56.2022 4.32845 56.2022 3.95702V3.61416C56.2022 3.25226 56.138 2.89749 56.0094 2.54987C55.8808 2.20226 55.6903 1.89273 55.438 1.6213C55.1856 1.34987 54.8689 1.13083 54.488 0.96416C54.107 0.797493 53.6594 0.71416 53.1451 0.71416H49.2308V10.7142H51.1165ZM51.1165 5.14273H52.9594C53.3784 5.14273 53.7094 5.02845 53.9522 4.79987C54.1951 4.5713 54.3165 4.27606 54.3165 3.91416V3.74273C54.3165 3.38083 54.1951 3.08559 53.9522 2.85702C53.7094 2.62845 53.3784 2.51416 52.9594 2.51416H51.1165V5.14273ZM63.9788 10.7142V8.99987H61.6645V0.71416H57.4645V2.42845H59.8645V8.99987H57.3788V10.7142H63.9788ZM69.3124 10.6356C68.9696 10.8213 68.5696 10.9142 68.1124 10.9142C67.6839 10.9142 67.2815 10.8332 66.9053 10.6713C66.5291 10.5094 66.1982 10.2713 65.9124 9.95702C65.6267 9.64273 65.4005 9.26178 65.2339 8.81416C65.0672 8.36654 64.9839 7.85702 64.9839 7.28559V7.05702C64.9839 6.49511 65.0648 5.99035 65.2267 5.54273C65.3886 5.09511 65.6077 4.71416 65.8839 4.39987C66.1601 4.08559 66.4815 3.84511 66.8482 3.67845C67.2148 3.51178 67.6077 3.42845 68.0267 3.42845C68.5315 3.42845 68.9386 3.51416 69.2482 3.68559C69.5577 3.85702 69.8029 4.12368 69.9839 4.48559H70.241V3.62845H72.041V8.5713C72.041 8.85702 72.1696 8.99987 72.4267 8.99987H72.6982V10.7142H71.4696C71.1458 10.7142 70.8815 10.6189 70.6767 10.4284C70.472 10.238 70.3696 9.99035 70.3696 9.68559H70.1124C69.922 10.1332 69.6553 10.4499 69.3124 10.6356ZM68.5124 9.19987C67.9886 9.19987 67.5696 9.02606 67.2553 8.67845C66.941 8.33083 66.7839 7.85702 66.7839 7.25702V7.08559C66.7839 6.48559 66.941 6.01178 67.2553 5.66416C67.5696 5.31654 67.9886 5.14273 68.5124 5.14273C69.0362 5.14273 69.4553 5.31654 69.7696 5.66416C70.0839 6.01178 70.241 6.48559 70.241 7.08559V7.25702C70.241 7.85702 70.0839 8.33083 69.7696 8.67845C69.4553 9.02606 69.0362 9.19987 68.5124 9.19987ZM79.9247 13.257C79.7199 13.4665 79.4556 13.5713 79.1318 13.5713H74.9175V11.857H78.0461C78.3033 11.857 78.4318 11.7142 78.4318 11.4284V9.68559H78.1747C77.8604 10.5046 77.1842 10.9142 76.1461 10.9142C75.7937 10.9142 75.4652 10.857 75.1604 10.7427C74.8556 10.6284 74.589 10.4523 74.3604 10.2142C74.1318 9.97606 73.9533 9.67845 73.8247 9.3213C73.6961 8.96416 73.6318 8.54273 73.6318 8.05702V3.62845H75.4318V7.68559C75.4318 8.19035 75.5509 8.58321 75.789 8.86416C76.0271 9.14511 76.3842 9.28559 76.8604 9.28559C77.4033 9.28559 77.8009 9.11178 78.0533 8.76416C78.3056 8.41654 78.4318 7.94273 78.4318 7.34273V3.62845H80.2318V12.457C80.2318 12.7808 80.1294 13.0475 79.9247 13.257Z" fill="#495567"/>
</svg>
